<svg xmlns="http://www.w3.org/2000/svg" xmlns:xlink="http://www.w3.org/1999/xlink" width="2425" height="374" viewBox="0 0 2425 374">
  <defs>
    <style>
      .cls-1, .cls-2 {
        fill: #11080b;
        fill-rule: evenodd;
      }

      .cls-2 {
        filter: url(#filter);
      }
    </style>
    <filter id="filter" x="752.562" y="26.188" width="1100.968" height="246.625" filterUnits="userSpaceOnUse">
      <feFlood result="flood" flood-color="#4b3f72"/>
      <feComposite result="composite" operator="in" in2="SourceGraphic"/>
      <feBlend result="blend" in2="SourceGraphic"/>
    </filter>
  </defs>
  <path id="day" class="cls-1" d="M1961.57,129.1q-15,21.9-15,57.3v7.2q0,35.4,15,57.3t45.9,21.9q32.4,0,47.1-24.6l3,21.3h17.7l-1.8-45V29.5h-21v99.3q-15.6-21.6-45-21.6Q1976.57,107.2,1961.57,129.1Zm17.4,108.9q-11.1-15.9-11.1-44.4v-7.2q0-28.5,11.1-44.4t33-15.9q24.9,0,40.5,24.6v78.6q-15.6,24.6-40.5,24.6Q1990.07,253.9,1978.97,238Zm250.5,31.5-1.8-45V166.3q0-28.5-13.2-43.8t-44.4-15.3q-16.8,0-28.65,4.8t-17.7,12.9a55.175,55.175,0,0,0-8.4,16.8,65.848,65.848,0,0,0-2.55,18.6V163h20.1q0-17.7,8.1-27.9t28.8-10.2q20.4,0,28.65,10.05t8.25,31.35v4.2l-48,7.5q-23.4,3.6-37.65,14.25t-14.25,34.05v3q0,19.5,12.3,31.5t33.6,12q36.6,0,56.1-25.5l3.3,22.2h17.4Zm-94.05-22.8a26.352,26.352,0,0,1-7.65-19.2v-2.7q0-25.8,32.7-31.5l46.2-7.5v43.5q-15.3,25.2-48.6,25.2Q2143.07,254.5,2135.42,246.7Zm137.25-136.2h-22.5l57,153-24.9,66h24.3l22.5-66,57-153h-22.5l-45.6,129.9Z"/>
  <path id="_frontend_" data-name="      frontend " class="cls-2" d="M806.1,51.7q7.347-6.6,23.25-6.6,11.7,0,17.1,2.7V29.5q-8.7-3.3-22.2-3.3-21.6,0-34.05,11.4t-12.45,36v36.9h-25.2v18.9h25.2V269.5h21V129.4h44.7V110.5h-44.7V76.3Q798.749,58.3,806.1,51.7Zm89.547,79.8-3-21h-17.4l1.8,45v114h21V151.6q15-24,42.3-24h4.2V107.5h-0.9a11.848,11.848,0,0,1-1.65-.15,14.188,14.188,0,0,0-1.95-.15q-28.8,0-44.4,24.3h0Zm202.8,62.1v-7.2q0-35.1-16.8-57.15-16.815-22.05-50.1-22.05t-50.1,22.05q-16.8,22.05-16.8,57.15v7.2q0,35.1,16.8,57.15t50.1,22.05q33.3,0,50.1-22.05t16.8-57.15h0Zm-112.5,0v-7.2q0-28.2,11.4-44.25t34.2-16.05q22.785,0,34.2,16.05,11.4,16.053,11.4,44.25v7.2q0,28.2-11.4,44.25t-34.2,16.05q-22.8,0-34.2-16.05t-11.4-44.25h0Zm267.293-35.4q0-22.8-12.6-36.9t-35.7-14.1q-36.3,0-53.4,25.8l-3-22.5h-17.4l1.8,45v114h21V150.7q15.6-24.6,43.8-24.6,16.2,0,25.35,8.85t9.15,26.25V269.5h21V158.2Zm70.21-92.7h-21v45h-25.2v18.9h25.2v96q0,24.6,12.45,36,12.435,11.4,34.05,11.4,13.5,0,22.2-3.3V251.2q-5.4,2.7-17.1,2.7-15.915,0-23.25-6.6-7.365-6.6-7.35-24.6V129.4h50.7V110.5h-50.7v-45Zm212.99,121.2q0-35.4-16.65-57.45t-49.95-22.05q-33.3,0-50.25,22.2t-16.95,57.3v6.6q0,35.4,17.25,57.45t51.45,22.05q31.2,0,48.15-16.2t16.95-36.9v-1.2h-20.1q0,14.4-11.4,25.5t-33.6,11.1q-45.9,0-47.4-56.4h112.5v-12Zm-21.3-5.4h-91.2q0.6-26.7,12.15-41.55t33.45-14.85q43.5,0,45.6,56.4h0Zm176.1-23.1q0-22.8-12.6-36.9t-35.7-14.1q-36.3,0-53.4,25.8l-3-22.5h-17.4l1.8,45v114h21V150.7q15.6-24.6,43.8-24.6,16.2,0,25.35,8.85t9.15,26.25V269.5h21V158.2Zm48.6-29.1q-15,21.9-15,57.3v7.2q0,35.4,15,57.3t45.9,21.9q32.4,0,47.1-24.6l3,21.3h17.7l-1.8-45V29.5h-21v99.3q-15.6-21.6-45-21.6Q1754.84,107.2,1739.84,129.1Zm17.4,108.9q-11.1-15.9-11.1-44.4v-7.2q0-28.5,11.1-44.4t33-15.9q24.9,0,40.5,24.6v78.6q-15.6,24.6-40.5,24.6Q1768.34,253.9,1757.24,238Z"/>
  <path id="_.NET" data-name=".NET" class="cls-1" d="M37.671,247.9q0,11.7,7.2,18.6t18,6.9q10.8,0,18-6.9t7.2-18.6q0-11.7-7.2-18.45t-18-6.75q-10.8,0-18,6.75T37.671,247.9Zm72.9,21.6h46.5V126.7l93.9,142.8h52.2V58h-46.8V200.5L162.77,58h-52.2V269.5Zm261.3,0h99.9V228.4h-99.9V184.3h90V142.9h-90V99.1h99.9V58h-146.4V269.5h46.5Zm113.1-170.4h59.4V269.5h46.5V99.1h59.7V58h-165.6V99.1Z"/>
</svg>
